# xmcd
#
# Track frame offsets:
#  150
#  26153
#  38726
#  55322
#  72423
#  87993
#  102275
#  125631
#  146244
#  164916
#  177305
#  194441
#  207646
#  225200
#  243447
#  263168
#
# Disc length: 3750 seconds
#
# Revision: 0
# Processed by: cddbd v1.5.1PL2 Copyright (c) Steve Scherf et al.
# Submitted via: Collectorz.com_Music_Collector 6.9
#
DISCID=f40ea410
DTITLE=Various Artist - 25 Jaar Paling Pop
DYEAR=1996
DGENRE=Pop
TTITLE0=Piet Veerman - Rollin' on the river
TTITLE1=Jen Rog - Devilish Mary
TTITLE2=The Cats - One way wind
TTITLE3=Tol and Tol - Eleni
TTITLE4=George Baker Selection - Paloma Blanca
TTITLE5=Fools - Where is the day
TTITLE6=Cees Veerman - Sailor sail on
TTITLE7=Anny Schilder - You are my hero
TTITLE8=BZN - Mon amour
TTITLE9=Next One - Little Spanish sailor
TTITLE10=Maribelle - Esperanza
TTITLE11=Left Side - Welcome to my house
TTITLE12=Canyon - Mooi Volendam
TTITLE13=Friends and Carola - Windmills of Holland
TTITLE14=Ben and Tamara - Love is the only way
TTITLE15=Corine - Donne moi ton coeur (Cheri)
EXTD=
EXTT0=
EXTT1=
EXTT2=
EXTT3=
EXTT4=
EXTT5=
EXTT6=
EXTT7=
EXTT8=
EXTT9=
EXTT10=
EXTT11=
EXTT12=
EXTT13=
EXTT14=
EXTT15=
PLAYORDER=
